<svg fill="none" height="37" viewBox="0 0 131 37" width="131" xmlns="http://www.w3.org/2000/svg"><g fill="#fff"><path d="m35.1548 16.6687c-.4752-.3135-1.0041-.5518-1.5908-.7191-.5868-.1672-1.1653-.3302-1.7396-.4891-.5743-.1631-1.0991-.3094-1.5743-.4432s-.8677-.3261-1.1693-.5769c-.3017-.2509-.4545-.577-.4545-.9825 0-.4892.2189-.8863.6569-1.1999s1.0165-.4683 1.7355-.4683c.7892 0 1.4131.2091 1.8717.6313.4587.4223.7025.9742.7314 1.6598h3.0246c-.0413-1.4424-.5619-2.6464-1.5536-3.6164-.9958-.96991-2.3387-1.45488-4.0287-1.45488-1.6776 0-3.0122.44735-3.9997 1.35038-.9876.8989-1.4793 2.011-1.4793 3.3405 0 .7985.1488 1.4883.4463 2.0653.2975.5769.6818 1.0201 1.1528 1.3253s.9958.5435 1.5743.7065c.5784.1631 1.1445.3261 1.7106.485.562.1589 1.0826.3052 1.5578.439.4751.1338.8594.3303 1.1569.5853s.4463.5853.4463.9867c0 .556-.2314.9866-.6983 1.296-.467.3052-1.1157.4599-1.9462.4599-.9173 0-1.6239-.2216-2.1156-.6647-.4958-.4432-.7602-.9992-.8057-1.6682h-3.0453c.029.6564.1529 1.2752.3719 1.8605s.5454 1.1288.9834 1.6263 1.0372.8947 1.7974 1.1873c.7603.2927 1.6404.439 2.6445.439 1.7767 0 3.2105-.4306 4.3055-1.296 1.0908-.8613 1.6404-1.9817 1.6404-3.3488 0-.832-.1488-1.5427-.4421-2.1406-.3058-.6104-.6901-1.0619-1.1652-1.3755z"/><path d="m43.6872 13.0483c-1.7354 0-3.1362.5686-4.2105 1.7016-1.0702 1.133-1.6073 2.521-1.6073 4.1641 0 1.643.5371 3.0269 1.6073 4.1641 1.0702 1.133 2.4751 1.7015 4.2105 1.7015s3.1362-.5685 4.2105-1.7015c1.0702-1.133 1.6073-2.5211 1.6073-4.1641 0-1.6389-.5371-3.0269-1.6073-4.1641-1.0743-1.1372-2.4751-1.7016-4.2105-1.7016zm2.0205 8.1944c-.5289.5728-1.2024.8571-2.0205.8571s-1.4916-.2843-2.0205-.8571c-.5289-.5686-.7934-1.3504-.7934-2.3329s.2645-1.7601.7934-2.3329c.5289-.5727 1.2024-.857 2.0205-.857s1.4916.2843 2.0205.857c.5289.5728.7934 1.3462.7934 2.3329s-.2645 1.7643-.7934 2.3329z"/><path d="m60.8185 10.5189h-3.004v2.7802h-1.4999-1.8387v-.9616c0-.8278.3925-1.2417 1.1859-1.2417.2272 0 .3801.0084.4669.0209v-2.61298l-.8884-.04181c-1.1693 0-2.0908.33029-2.7601.98249-.6694.6564-1.0041 1.6431-1.0041 2.9516v.8989h-1.5867v2.3956h1.5867v8.8173h3.0039v-8.8089h1.8388 1.4999v5.4559c0 2.2827 1.1362 3.4241 3.4047 3.4241.6074 0 1.0784-.0418 1.4173-.1296v-2.6339l-.6983.1087c-.7479 0-1.1198-.3638-1.1198-1.0912v-5.134h1.8387v-2.3956h-1.8387v-2.7844z"/><path d="m70.2764 13.0482c-.7355 0-1.3842.138-1.9585.4181-.5702.2801-1.0124.6229-1.3223 1.0368v-6.03704h-3.0039v16.05004h2.7726v-1.3713c.7313 1.0828 1.9048 1.6263 3.5121 1.6263 1.566 0 2.8056-.556 3.7229-1.6681s1.376-2.5126 1.376-4.1933c0-1.6849-.4587-3.0813-1.376-4.1934-.9173-1.112-2.161-1.6681-3.7229-1.6681zm1.3429 8.1526c-.4999.5978-1.1611.8988-1.9792.8988s-1.4792-.301-1.9792-.8988c-.5-.5979-.752-1.363-.752-2.2911 0-.9282.252-1.6891.752-2.2911.5-.5978 1.1611-.8989 1.9792-.8989s1.4751.3011 1.9792.8989c.5.5979.752 1.3629.752 2.2911-.0041.9281-.252 1.6932-.752 2.2911z"/><path d="m79.9205 13.3032h-3.004v11.2129h3.004z"/><path d="m78.4165 8.19019c-.5372 0-.9711.17559-1.3099.52259-.3388.35119-.5082.79017-.5082 1.31692 0 .5268.1694.9616.5082 1.3044.3388.3429.7768.5143 1.3099.5143.5371 0 .971-.1714 1.3098-.5143.3388-.3428.5082-.7776.5082-1.3044 0-.52675-.1694-.96573-.5082-1.31692-.3347-.35118-.7727-.52259-1.3098-.52259z"/><path d="m88.2341 13.0483c-1.6238 0-2.7229.5435-3.3014 1.6264v-1.3713h-2.7725v11.2129h3.0039v-6.4176c0-.7567.1983-1.3504.5909-1.7852.3925-.4348.9503-.6522 1.6693-.6522 1.2561 0 1.8842.7359 1.8842 2.2033v6.6558h3.0039v-7.0028c0-1.3713-.3512-2.4583-1.0578-3.2652-.7024-.8027-1.7106-1.2041-3.0205-1.2041z"/><path d="m103.989 17.2208c0-1.3253-.409-2.3538-1.227-3.0813-.818-.7274-2.029-1.0912-3.636-1.0912-1.6238 0-2.8345.3721-3.6361 1.1121-.8057.74-1.2561 1.664-1.3553 2.7594h2.9626c.1281-.9115.8099-1.3713 2.0536-1.3713 1.3262 0 1.9872.5476 1.9872 1.6472v.1087l-2.9664.4641c-1.4628.2299-2.5412.6313-3.2395 1.2166-.6983.5811-1.0495 1.3629-1.0495 2.3454 0 1.041.3388 1.8772 1.0164 2.5043.6777.6271 1.6363.9407 2.8759.9407 1.6486 0 2.8181-.4976 3.5121-1.4968 0 .2133.012.4265.033.6313.021.2091.037.3596.054.4599.012.1004.029.1505.041.1505h2.897c-.211-.4975-.319-1.1706-.319-2.0109v-5.2887zm-2.855 2.7175c0 .7483-.231 1.3504-.698 1.8061-.467.4515-1.1282.6773-1.9876.6773-1.1156 0-1.6693-.3888-1.6693-1.1665 0-.6773.5661-1.1162 1.6941-1.3169l2.6608-.4474z"/><path d="m109.32 10.5188h-3.004v2.7802h-1.5v2.3956h1.5v5.456c0 2.2827 1.136 3.424 3.404 3.424.608 0 1.079-.0418 1.418-.1296v-2.6339l-.699.1087c-.748 0-1.119-.3637-1.119-1.0912v-5.1298h1.838v-2.3956h-1.838z"/><path d="m117.381 13.0483c-1.735 0-3.136.5686-4.21 1.7016-1.071 1.133-1.608 2.521-1.608 4.1641 0 1.643.537 3.0269 1.608 4.1641 1.07 1.133 2.475 1.7015 4.21 1.7015s3.136-.5685 4.211-1.7015c1.07-1.133 1.607-2.5211 1.607-4.1641 0-1.6389-.537-3.0269-1.607-4.1641-1.075-1.1372-2.48-1.7016-4.211-1.7016zm2.021 8.1944c-.529.5728-1.203.8571-2.021.8571s-1.492-.2843-2.02-.8571c-.529-.5686-.794-1.3504-.794-2.3329s.265-1.7601.794-2.3329c.528-.5727 1.202-.857 2.02-.857s1.492.2843 2.021.857c.528.5728.793 1.3462.793 2.3329-.004.9867-.265 1.7643-.793 2.3329z"/><path d="m130.64 13.1946c-1.454 0-2.495.5226-3.132 1.5636v-1.4549h-2.772v11.2129h3.004v-5.5856c0-1.0117.223-1.7559.665-2.2242.446-.4724 1.112-.7065 2-.7065.182 0 .38.0209.591.0627v-2.8471z"/><path d="m27.7462 33.2666s-12.2472-14.106-12.2802-14.1478c-.438-.5394-.6983-1.2292-.6983-1.9776 0-.8027.3016-1.5343.7974-2.0862l12.1811-14.03907c.533-.597851 1.2933-.9824837 2.1445-1.01593 0 0-14.6272 0-14.6396 0-.8966 0-1.7065.388814-2.2684 1.01175l-.0042.00418-.0082.01254-12.17283 14.03073c-.495836.5519-.79747 1.2835-.79747 2.0862 0 .7484.260314 1.4382.698303 1.9775.033056.0418.070244.0837.107431.1213l12.172766 14.0224.0042.0041c.5619.623 1.3676 1.0118 2.2684 1.0118h14.6396c-.8512-.0335-1.6115-.4181-2.1445-1.0159z"/><path d="m42.2865 30.938v.9616h-1.7024v4.9751h-.9999v-4.9751h-1.7024v-.9616z"/><path d="m48.8151 35.9382v.9365h-4.1237v-5.9367h4.1237v.9365h-3.1238v1.5218h2.9833v.9365h-2.9833v1.6054z"/><path d="m51.2776 33.8979c0-.9072.2727-1.6514.8222-2.2242.5496-.5727 1.252-.8612 2.1115-.8612.7313 0 1.3553.2049 1.8676.6188.5124.4139.8306.9699.9504 1.6723h-1.0661c-.0991-.4139-.3057-.7358-.6156-.97-.3099-.2341-.6901-.3512-1.1363-.3512-.5826 0-1.0413.1924-1.376.5728-.3346.3805-.4999.8947-.4999 1.5427s.1653 1.1623.4999 1.5469c.3347.3846.7934.577 1.376.577.4462 0 .8264-.1171 1.1363-.3512s.5165-.5561.6156-.97h1.0661c-.1198.7024-.438 1.2585-.9504 1.6724-.5123.4139-1.1363.6187-1.8676.6187-.8595 0-1.5619-.2885-2.1115-.8612-.5495-.5728-.8222-1.317-.8222-2.2326z"/><path d="m64.4753 30.938v5.9367h-1v-2.5419h-2.7849v2.5419h-1v-5.9367h1v2.4583h2.7849v-2.4583z"/><path d="m68.4998 32.6145v4.2602h-.9834v-5.9367h.9999l2.8676 4.2937v-4.2937h.9834v5.9367h-1.0247z"/><path d="m75.9374 36.1179c-.5661-.5895-.8512-1.3253-.8512-2.2116s.2851-1.6222.8512-2.2117c.566-.5894 1.2933-.8821 2.1816-.8821.8884 0 1.6156.2927 2.1817.8821.5661.5895.8512 1.3254.8512 2.2117s-.2851 1.6221-.8512 2.2116-1.2933.8822-2.1817.8822c-.8883 0-1.6156-.2927-2.1816-.8822zm.7602-3.7501c-.3677.3888-.5536.903-.5536 1.5385s.1859 1.1497.5536 1.5385c.3678.3888.843.5853 1.4214.5853.5785 0 1.0537-.1965 1.4214-.5853.3678-.3888.5537-.903.5537-1.5385s-.1859-1.1497-.5537-1.5385c-.3677-.3889-.8429-.5854-1.4214-.5854-.5784 0-1.0536.1965-1.4214.5854z"/><path d="m87.5894 35.9382v.9365h-3.7188v-5.9367h.9999v5.0002z"/><path d="m90.2836 36.1179c-.5661-.5895-.8512-1.3253-.8512-2.2116s.2851-1.6222.8512-2.2117c.566-.5894 1.2933-.8821 2.1816-.8821.8884 0 1.6156.2927 2.1817.8821.5661.5895.8512 1.3254.8512 2.2117s-.2851 1.6221-.8512 2.2116-1.2933.8822-2.1817.8822c-.8883 0-1.6156-.2927-2.1816-.8822zm.7602-3.7501c-.3677.3888-.5536.903-.5536 1.5385s.1859 1.1497.5536 1.5385c.3678.3888.843.5853 1.4214.5853.5785 0 1.0537-.1965 1.4214-.5853.3678-.3888.5537-.903.5537-1.5385s-.1859-1.1497-.5537-1.5385c-.3677-.3889-.8429-.5854-1.4214-.5854-.5784 0-1.0536.1965-1.4214.5854z"/><path d="m103.638 33.6304v3.2442h-.901v-.8528c-.186.2968-.45.5267-.789.6982-.339.1714-.731.255-1.178.255-.8425 0-1.5326-.2843-2.0697-.8571-.5372-.5727-.8058-1.3127-.8058-2.22 0-.9072.2727-1.6514.8223-2.2242.5496-.5727 1.252-.8612 2.1112-.8612.715 0 1.327.1965 1.831.5853s.826.924.962 1.5971h-1.082c-.103-.3847-.31-.6815-.616-.8947s-.669-.3178-1.095-.3178c-.582 0-1.041.1924-1.3757.5728-.3347.3805-.5.8947-.5 1.5427s.1694 1.1706.5083 1.5678c.3388.3972.7934.5979 1.3674.5979.508 0 .926-.1338 1.256-.3972.331-.2634.525-.6355.587-1.1163h-1.57v-.9197z"/><path d="m107.563 30.938v5.9367h-1v-5.9367z"/><path d="m114.728 35.9382v.9365h-4.124v-5.9367h4.124v.9365h-3.124v1.5218h2.984v.9365h-2.984v1.6054z"/><path d="m119.397 36.0803c.401 0 .715-.0711.934-.2132.219-.1422.331-.347.331-.6146 0-.1965-.062-.3554-.182-.4766-.12-.1213-.281-.209-.475-.2634-.199-.0543-.409-.1087-.633-.1714-.227-.0627-.454-.1254-.694-.1881-.235-.0628-.45-.1506-.644-.2634-.195-.1129-.352-.2801-.471-.5017-.12-.2216-.182-.4975-.182-.8195 0-.4891.19-.9072.574-1.2458.384-.3387.893-.5101 1.525-.5101.665 0 1.186.184 1.558.5477s.562.8361.574 1.4173h-.983c-.005-.3052-.108-.5603-.306-.7568-.199-.1964-.48-.2968-.843-.2968-.347 0-.62.0711-.814.2132-.194.1422-.293.3429-.293.6021 0 .1714.061.3135.181.4264s.281.1965.48.2509c.198.0543.409.1128.64.1756.231.0627.467.1254.703.1923.235.0669.45.1588.648.2759.194.1212.351.2968.475.5226s.182.5059.182.8278c0 .5393-.211.9741-.636 1.296-.426.322-.988.485-1.694.485-.723 0-1.265-.1923-1.628-.5769-.364-.3847-.554-.8487-.57-1.3964h.991c.021.3303.141.5895.356.7776.21.1881.512.2843.896.2843z"/></g></svg>