<?xml version="1.0" encoding="utf-8"?>
<!-- Generator: Adobe Illustrator 25.0.1, SVG Export Plug-In . SVG Version: 6.00 Build 0)  -->
<svg version="1.1" id="Layer_1" xmlns="http://www.w3.org/2000/svg" xmlns:xlink="http://www.w3.org/1999/xlink" x="0px" y="0px"
	 viewBox="0 0 328 104.8" style="enable-background:new 0 0 328 104.8;" xml:space="preserve">
<style type="text/css">
	.st0{fill:#C0A468;}
</style>
<g id="Layer_1_1_">
	<path class="st0" d="M148.5,55.2c3.7,0,6.2-1.8,7.9-5.9l1.8-4.3h-41.7c-7.2,0-23.3,9.5-23.3,15.9c0.1,4.8,4.3,10.4,8.4,13.1
		l6.7-10.6c-1.8-1.1-4-2.7-4-4.8c0-2,2.2-3.3,4.1-3.3h12.2l-17.1,42.3h11.4c1.6,0,2.7-0.9,3.5-2.6l16.1-39.6H148.5z M326,59.9
		c-5.3,5.7-10.5,7.2-19,7.2c-1.6-2.8-5.3-4.2-10.1-4.2c-8.6,0-12.3,5.9-20.6,5.9c-7.1,0-14.2-4.5-18.9-4.8l-2.9,4.3
		c2.3,1.4,3.7,3.4,3.7,6.9c0,5.9-5.5,15.7-11.4,15.7c-2.3,0-3.1-2.9-1.8-6.1L261,45h-6.5c-4.7,0-6.1,1.8-7.7,5.6l-8.9,22
		c-4.6,11-11.7,16.3-15.7,16.3c-2.2,0-2.7-1.6-1.8-3.7l8.6-21.1h-7.2c-2.3,0-4.8,0.7-6.8,5.3l-1.8,4.5
		c-4.5,10.9-10.9,15.1-14.7,15.1c-2,0-2.9-1.2-1.8-3.8l4.5-11c2.3-6.4,2.2-10.7-4.2-10.7c-6.8,0-12.9,6-16.4,9.9L191.9,45h-7
		c-3.4,0-5.5,0.9-7.2,5.3l-8.7,22.3c-4.7,11.7-17.3,17-22.2,17c-3.2,0-4.8-1.5-4.8-4.4c0-5.6,5.6-12.3,11.8-12.3h2.3
		c2.6,0,4.3-1.3,5.5-4l2.1-4.8h-7.9c-14,0-26.8,12.7-26.3,26.3c0.1,5.1,3.3,7.9,9,7.9c8.2,0,17.3-4.3,25.2-12.4l-4.8,11.7h7.6
		c3.2,0,5.1-1.5,6.7-5.3c3.8-9,8.3-18.9,13.9-18.9c1.7,0,2.5,1.3,1.7,3.3l-4.3,10.3c-2.6,6.2-2.1,11.2,4.7,11.2
		c5.6,0,11.9-3.2,18.3-9.8c-1.6,5.7-0.8,9.8,5.5,9.8c6.1,0,13.4-4.2,20-11.5c-1.1,7,2.8,11.5,10.6,11.5c12.8,0,26-11.9,26-24.8
		c0,0,1.3,0.1,2.6,0.1c2.1,0,5.2-0.7,7-1.5c-3.2,3.9-5.2,9.3-5.2,14.9c0,6.9,4,11.3,11.2,11.3c12.6,0,20.9-11.7,22.2-21.2
		c-10.1,0.7-16.4,4.9-19.2,13.4c-0.7,2.1-1.4,3.2-3.1,3.2c-1.2,0-2.3-0.9-2.3-2.4c0-3.3,4.6-7.1,6.8-11.6c2.5-4.9,2.4-12,6.4-12
		c1.2,0,2,0.9,2,2.2c0,2.5-2.5,5.5-4.3,8.4c5.4-3.4,9.7-3.8,14.6-4.3C318.7,72.9,324.7,70,326,59.9 M226.9,57.1h-7.1l2.8-6.8
		c1.5-3.7,4-5.3,7.1-5.3h7l-2.8,6.8C232.5,55.3,230.2,57.1,226.9,57.1 M36.7,66.3c2.9-4.6,5.8-8.1,5.8-11.9c0-2-1-3-2.6-3
		c-5.9,0-6.1,11.6-8.9,17.4C26.4,78.4,20.4,83,20.4,87.3c0,2.5,1.5,3.5,3.1,3.5c2.6,0,3.4-1.3,4.4-4.6c4.8-16,13.7-20.5,28.9-21.2
		C55.6,78.6,43,98.2,23.3,98.2c-11,0-17.3-6.1-17.3-17c0-17.5,14.9-37.1,34.7-37.1c6.9,0,12.5,2.1,14.8,6c23.3,0.8,31-7.4,31-13.6
		c0-4.9-4.6-6.6-11.9-6.6c-17,0-32.8,10.4-54.5,10.4c-9.6,0-15.4-3.3-15.4-9c0-17.8,50.4-7.1,50.4-23.1c0-1.2-0.7-2.3-1.5-3.1
		c2.5,0.5,8.8,1.9,8.8,6.5c0,15.7-37.9,7.7-37.9,17.4c0,2.3,2,3.5,5.8,3.5c15,0,30.8-11.4,44.5-11.4c13.9,0,18.5,7.7,18.5,14.9
		c0,11.4-11.9,24.3-36.4,25.3C47.4,61.8,42.4,62.6,36.7,66.3"/>
</g>
</svg>
